<svg width="47" height="93" viewBox="0 0 47 93" fill="none" xmlns="http://www.w3.org/2000/svg">
<path d="M0.5 0C6.60647 0 12.6531 1.20276 18.2948 3.5396C23.9364 5.87645 29.0625 9.30161 33.3805 13.6195C37.6984 17.9375 41.1236 23.0636 43.4604 28.7052C45.7972 34.3469 47 40.3935 47 46.5C47 52.6065 45.7972 58.6531 43.4604 64.2948C41.1236 69.9364 37.6984 75.0625 33.3805 79.3805C29.0625 83.6984 23.9364 87.1236 18.2948 89.4604C12.6531 91.7972 6.60646 93 0.499996 93V84.7082C5.51757 84.7082 10.486 83.72 15.1217 81.7998C19.7573 79.8797 23.9693 77.0653 27.5173 73.5173C31.0653 69.9693 33.8797 65.7573 35.7998 61.1217C37.72 56.486 38.7082 51.5176 38.7082 46.5C38.7082 41.4824 37.72 36.514 35.7998 31.8783C33.8797 27.2427 31.0653 23.0307 27.5173 19.4827C23.9693 15.9347 19.7573 13.1203 15.1217 11.2002C10.486 9.28004 5.51758 8.29176 0.5 8.29176V0Z" fill="#F05523" fill-opacity="0.6"/>
</svg>
