<svg width="19" height="19" viewBox="0 0 19 19" fill="none" xmlns="http://www.w3.org/2000/svg">
<path fill-rule="evenodd" clip-rule="evenodd" d="M16.8436 3.47327C18.2379 5.17225 19 7.30213 19 9.5H17.8665C17.8665 7.56435 17.1954 5.68859 15.9674 4.19231C14.7395 2.69604 13.0307 1.67183 11.1322 1.29421C9.23377 0.91658 7.26311 1.2089 5.55602 2.12136C3.84893 3.03381 2.51104 4.50995 1.7703 6.29826C1.02956 8.08656 0.931804 10.0764 1.49369 11.9287C2.05558 13.781 3.24235 15.3812 4.85178 16.4565C6.46121 17.5319 8.39373 18.016 10.3201 17.8263C12.1032 17.6506 13.779 16.9077 15.1039 15.7126L14.1652 14.69L17.6568 13.9127L16.5842 17.3251L15.8704 16.5476C14.3648 17.9085 12.4592 18.7545 10.4311 18.9542C8.24386 19.1697 6.04954 18.62 4.22208 17.399C2.39461 16.1779 1.04708 14.3609 0.409068 12.2577C-0.22894 10.1545 -0.117943 7.89508 0.723146 5.86451C1.56424 3.83394 3.08338 2.15783 5.02173 1.12176C6.96008 0.0856916 9.1977 -0.246229 11.3533 0.182555C13.509 0.611338 15.4493 1.7743 16.8436 3.47327Z" fill="#F05523" fill-opacity="0.4"/>
</svg>
