<svg width="8" height="13" viewBox="0 0 8 13" fill="none" xmlns="http://www.w3.org/2000/svg">
<path d="M4.37519 5.8125C2.95644 5.44375 2.50019 5.0625 2.50019 4.46875C2.50019 3.7875 3.13144 3.3125 4.18769 3.3125C5.30019 3.3125 5.71269 3.84375 5.75019 4.625H7.13144C7.08769 3.55 6.43144 2.5625 5.12519 2.24375V0.875H3.25019V2.225C2.03769 2.4875 1.0627 3.275 1.0627 4.48125C1.0627 5.925 2.25644 6.64375 4.00019 7.0625C5.56269 7.4375 5.87519 7.9875 5.87519 8.56875C5.87519 9 5.56894 9.6875 4.18769 9.6875C2.90019 9.6875 2.39394 9.1125 2.32519 8.375H0.950195C1.0252 9.74375 2.05019 10.5125 3.25019 10.7688V12.125H5.12519V10.7812C6.34394 10.55 7.31269 9.84375 7.31269 8.5625C7.31269 6.7875 5.79394 6.18125 4.37519 5.8125Z" fill="white"/>
</svg>
