<svg width="9" height="8" viewBox="0 0 9 8" fill="none" xmlns="http://www.w3.org/2000/svg">
<path d="M0.666991 4.41667H7.75033C7.97949 4.41667 8.16699 4.60417 8.16699 4.83333V7.33333C8.16699 7.5625 7.97949 7.75 7.75033 7.75H0.666991C0.437825 7.75 0.250325 7.5625 0.250325 7.33333V4.83333C0.250325 4.60417 0.437825 4.41667 0.666991 4.41667ZM0.666991 0.25H7.75033C7.97949 0.25 8.16699 0.4375 8.16699 0.666667V3.16667C8.16699 3.39583 7.97949 3.58333 7.75033 3.58333H0.666991C0.437825 3.58333 0.250325 3.39583 0.250325 3.16667V0.666667C0.250325 0.4375 0.437825 0.25 0.666991 0.25Z" fill="white"/>
</svg>
