<svg width="20" height="20" viewBox="0 0 20 20" fill="none" xmlns="http://www.w3.org/2000/svg">
<path d="M8.79883 14.375C8.79883 14.7982 8.91927 15.166 9.16016 15.4785C9.40104 15.791 9.7168 16.0189 10.1074 16.1621C10.0879 16.2793 10.0716 16.3965 10.0586 16.5137C10.0456 16.6309 10.0391 16.7513 10.0391 16.875C10.0391 16.9661 10.0423 17.0605 10.0488 17.1582C10.0553 17.2559 10.0684 17.3503 10.0879 17.4414C9.7168 17.3698 9.37825 17.2428 9.07227 17.0605C8.76628 16.8783 8.49935 16.6504 8.27148 16.377C8.04362 16.1035 7.86784 15.7975 7.74414 15.459C7.62044 15.1204 7.55859 14.7591 7.55859 14.375C7.55859 13.9453 7.63997 13.5417 7.80273 13.1641C7.96549 12.7865 8.18359 12.4577 8.45703 12.1777C8.73047 11.8978 9.05925 11.6732 9.44336 11.5039C9.82747 11.3346 10.2311 11.25 10.6543 11.25H13.1348C13.5579 11.25 13.9583 11.3314 14.3359 11.4941C14.7135 11.6569 15.0423 11.8848 15.3223 12.1777C15.6022 12.4707 15.8236 12.8027 15.9863 13.1738C16.1491 13.5449 16.2305 13.9453 16.2305 14.375C16.2305 14.7396 16.1686 15.0911 16.0449 15.4297C15.9212 15.7682 15.752 16.0742 15.5371 16.3477C15.3223 16.6211 15.0586 16.8522 14.7461 17.041C14.4336 17.2298 14.1016 17.36 13.75 17.4316V16.1328C14.1211 15.9896 14.4206 15.765 14.6484 15.459C14.8763 15.153 14.9902 14.7917 14.9902 14.375C14.9902 14.1211 14.9414 13.8802 14.8438 13.6523C14.7461 13.4245 14.6159 13.2259 14.4531 13.0566C14.2904 12.8874 14.0951 12.7507 13.8672 12.6465C13.6393 12.5423 13.3952 12.4935 13.1348 12.5H10.6543C10.3939 12.5 10.1497 12.5488 9.92188 12.6465C9.69401 12.7441 9.4987 12.8776 9.33594 13.0469C9.17318 13.2161 9.04297 13.4147 8.94531 13.6426C8.84766 13.8704 8.79883 14.1146 8.79883 14.375ZM20 16.8457C20 17.2754 19.9186 17.6823 19.7559 18.0664C19.5931 18.4505 19.3717 18.7858 19.0918 19.0723C18.8118 19.3587 18.4798 19.5833 18.0957 19.7461C17.7116 19.9089 17.3047 19.9935 16.875 20H14.375C13.9388 20 13.5319 19.9186 13.1543 19.7559C12.7767 19.5931 12.4479 19.3652 12.168 19.0723C11.888 18.7793 11.6634 18.444 11.4941 18.0664C11.3249 17.6888 11.2435 17.2819 11.25 16.8457C11.25 16.4811 11.3118 16.1296 11.4355 15.791C11.5592 15.4525 11.7318 15.1432 11.9531 14.8633C12.1745 14.5833 12.4382 14.3457 12.7441 14.1504C13.0501 13.9551 13.3854 13.8249 13.75 13.7598V15.0586C13.5612 15.1237 13.3919 15.2148 13.2422 15.332C13.0924 15.4492 12.9622 15.5892 12.8516 15.752C12.7409 15.9147 12.6562 16.0872 12.5977 16.2695C12.5391 16.4518 12.5065 16.6439 12.5 16.8457C12.5 17.1061 12.5488 17.3503 12.6465 17.5781C12.7441 17.806 12.8776 18.0078 13.0469 18.1836C13.2161 18.3594 13.4147 18.4961 13.6426 18.5938C13.8704 18.6914 14.1146 18.7435 14.375 18.75H16.875C17.1354 18.75 17.3796 18.7012 17.6074 18.6035C17.8353 18.5059 18.0339 18.3659 18.2031 18.1836C18.3724 18.0013 18.5059 17.7995 18.6035 17.5781C18.7012 17.3568 18.75 17.1126 18.75 16.8457C18.75 16.6439 18.7174 16.4486 18.6523 16.2598C18.5872 16.071 18.4993 15.8952 18.3887 15.7324C18.278 15.5697 18.138 15.4297 17.9688 15.3125C17.7995 15.1953 17.6204 15.1042 17.4316 15.0391C17.4512 14.9219 17.4674 14.8047 17.4805 14.6875C17.4935 14.5703 17.5 14.4499 17.5 14.3262C17.5 14.2285 17.4935 14.1341 17.4805 14.043C17.4674 13.9518 17.4544 13.8574 17.4414 13.7598C17.8125 13.8314 18.1543 13.9616 18.4668 14.1504C18.7793 14.3392 19.0495 14.5703 19.2773 14.8438C19.5052 15.1172 19.681 15.4232 19.8047 15.7617C19.9284 16.1003 19.9935 16.4616 20 16.8457ZM1.25 1.25V18.75H10V20H0V0H10.8887L16.25 5.36133V10H15V6.25H10V1.25H1.25ZM11.25 2.13867V5H14.1113L11.25 2.13867Z" fill="white"/>
</svg>
